<svg width="132" height="148" viewBox="0 0 132 148" fill="none" xmlns="http://www.w3.org/2000/svg">
<path d="M132 14.6114V28.4114C132 50.8229 113.755 68.9972 91.2579 68.9972H85.5532L91.8835 62.4943C110.47 62.1629 125.477 46.9972 125.477 28.4114V17.86H101.032L101.847 11.3657H128.734C130.537 11.3657 131.994 12.82 131.994 14.6114H132Z" fill="#E8A615"/>
<path d="M87.186 108.097V115.266H44.8169V108.097C44.8169 107.511 45.1354 106.969 45.6491 106.686L48.8601 104.883C54.4185 101.766 57.8562 95.9143 57.8562 89.5572V81.9829H74.1525V89.5572C74.1525 95.9143 77.5902 101.766 83.1486 104.883L86.3596 106.686C86.8732 106.969 87.1918 107.514 87.1918 108.097H87.186Z" fill="#E8A615"/>
<path d="M87.186 108.097V115.266H83.1112V108.097C83.1112 107.511 82.7927 106.969 82.279 106.686L79.068 104.883C73.5096 101.766 70.0719 95.9143 70.0719 89.5572V81.9829H74.1467V89.5572C74.1467 95.9143 77.5844 101.766 83.1428 104.883L86.3538 106.686C86.8675 106.969 87.186 107.514 87.186 108.097Z" fill="#B7791D"/>
<path d="M79.0364 75.6514V80.3599C79.0364 82.5999 77.2114 84.4199 74.9617 84.4199H57.0355C54.7857 84.4199 52.9607 82.6028 52.9607 80.3599V75.6514H79.0336H79.0364Z" fill="#E8A615"/>
<path d="M74.1467 84.42H57.8505V86.8058H74.1467V84.42Z" fill="#B7791D"/>
<path d="M93.7027 113.64V142.051H38.2943V113.64C38.2943 112.746 39.0289 112.017 39.9242 112.017H92.0728C92.9681 112.017 93.7027 112.749 93.7027 113.64Z" fill="#343B49"/>
<path d="M93.7027 113.64V142.051H90.4429V113.64C90.4429 112.746 89.7083 112.017 88.813 112.017H92.0728C92.9681 112.017 93.7027 112.749 93.7027 113.64Z" fill="#262D38"/>
<path d="M35.0374 139.617H96.9626C97.8636 139.617 98.5925 140.346 98.5925 141.24V144.489C98.5925 145.383 97.8636 146.111 96.9626 146.111H35.0374C34.1363 146.111 33.4075 145.383 33.4075 144.489V141.24C33.4075 140.346 34.1363 139.617 35.0374 139.617Z" fill="#262D38"/>
<path d="M98.5925 141.24V144.486C98.5925 145.38 97.8579 146.109 96.9626 146.109H93.7028C94.5981 146.109 95.3327 145.377 95.3327 144.486V141.24C95.3327 140.346 94.5981 139.617 93.7028 139.617H96.9626C97.8579 139.617 98.5925 140.349 98.5925 141.24Z" fill="#171C23"/>
<path d="M48.0739 118.511H83.9262C84.8273 118.511 85.5561 119.24 85.5561 120.134V131.5C85.5561 132.394 84.8273 133.123 83.9262 133.123H48.0739C47.1728 133.123 46.444 132.394 46.444 131.5V120.134C46.444 119.24 47.1728 118.511 48.0739 118.511Z" fill="#E8A615"/>
<path d="M79.0364 75.6514V80.3599C79.0364 82.5999 77.2114 84.4199 74.9616 84.4199H71.7018C73.9515 84.4199 75.7766 82.6028 75.7766 80.3599V75.6514H79.0364Z" fill="#B7791D"/>
<path d="M48.8888 68.9972H40.7392C18.2447 68.9972 0 50.8229 0 28.4114V14.6114C0 12.8172 1.45774 11.3657 3.25983 11.3657H30.1477V17.86H6.51965V28.4114C6.51965 47 21.5275 62.1629 40.1137 62.4943L48.8888 68.9972Z" fill="#E8A615"/>
<path d="M105.927 4.87146V8.11717C105.927 47.5658 88.0497 79.5486 66 79.5486C43.9503 79.5486 26.0729 47.5658 26.0729 8.11717V4.87146H105.924H105.927Z" fill="#E8A615"/>
<path d="M26.4402 17.8572H23.1804C23.0168 15.7229 22.9107 13.5543 22.8533 11.3629H26.1131C26.1705 13.5543 26.2767 15.7229 26.4402 17.8572Z" fill="#B7791D"/>
<path d="M45.1095 68.9972H41.8497C40.0333 67 38.3058 64.7429 36.6989 62.26C37.8237 62.3972 38.9572 62.4714 40.1136 62.4943C41.6775 64.8886 43.3476 67.0657 45.1095 68.9972Z" fill="#B7791D"/>
<path d="M79.0365 75.6514V77.2742C74.9474 79.7999 70.5627 81.1714 66.0001 81.1714C61.4374 81.1714 57.0528 79.7999 52.9636 77.2742V75.6514C57.0528 78.1771 61.4374 79.5485 66.0001 79.5485C70.5627 79.5485 74.9474 78.1771 79.0365 75.6514Z" fill="#B7791D"/>
<path d="M105.927 4.87146V8.11717C105.927 46.3343 89.1487 77.5429 68.0546 79.46C88.5547 77.52 96.1505 46.3172 96.1505 8.11717V4.87146H105.927Z" fill="#B7791D"/>
<path d="M109.999 4.06C109.999 5.18 109.543 6.19429 108.808 6.93429C108.068 7.66571 107.049 8.12 105.924 8.12H26.0728C23.8231 8.12 21.998 6.30286 21.998 4.06C21.998 2.94 22.4543 1.92571 23.1889 1.18571C23.9293 0.454286 24.948 0 26.0728 0H105.924C108.174 0 109.999 1.81714 109.999 4.06Z" fill="#E8A615"/>
<path d="M105.927 8.11719C105.927 9.20576 105.91 10.2858 105.887 11.3629H26.1159C26.09 10.2829 26.0757 9.2029 26.0757 8.11719H105.927Z" fill="#B7791D"/>
<path d="M109.999 4.06C109.999 5.18 109.543 6.19429 108.808 6.93429C108.068 7.66571 107.049 8.12 105.924 8.12H96.9626C98.0875 8.12 99.1062 7.66571 99.8466 6.93429C100.581 6.19429 101.037 5.18 101.037 4.06C101.037 1.82 99.2124 0 96.9626 0H105.924C108.174 0 109.999 1.81714 109.999 4.06Z" fill="#B7791D"/>
<path d="M85.556 120.134V131.497C85.556 132.391 84.8214 133.12 83.9261 133.12H51.5775C58.1603 132.991 79.8513 131.594 79.8513 118.509H83.9261C84.8214 118.509 85.556 119.24 85.556 120.131V120.134Z" fill="#B7791D"/>
<path d="M48.0739 127.44V120.797C48.0739 120.431 48.3723 120.134 48.7396 120.134H63.3514C63.3514 120.134 51.7412 121.351 48.0739 127.44Z" fill="#FFCC66"/>
<path d="M40.1309 120.946V114.303C40.1309 113.937 40.4293 113.64 40.7966 113.64H55.4084C55.4084 113.64 43.7982 114.857 40.1309 120.946Z" fill="#4E5868"/>
<path d="M66 77.1143C57.1503 77.1143 32.6098 58.5172 29.634 14.6115H39.3131C41.7493 68.3315 65.9972 77.1143 65.9972 77.1143H66Z" fill="#FFCC66"/>
<path d="M48.8888 108.771C48.8888 108.771 60.2953 101.466 60.2953 90.9143V108.771H48.8888Z" fill="#FFCC66"/>
<path d="M27.7028 1.6228V4.05709H23.6281C23.6281 2.71709 24.7214 1.6228 26.0729 1.6228H27.7028Z" fill="#FFCC66"/>
<path d="M108.329 11.3629C108.272 13.5543 108.165 15.7229 107.996 17.8572H101.037L101.852 11.3629H108.329Z" fill="#B7791D"/>
<path d="M94.4288 62.3572C92.8304 64.8 91.1288 67.0258 89.3353 68.9972H85.5532L88.4371 66.0429L91.8835 62.4943C92.7386 62.4772 93.5851 62.4286 94.4259 62.3572H94.4288Z" fill="#B7791D"/>
<path d="M66.4092 34.2778L70.0307 37.2043L75.795 32.5563V26.7222L66.4092 34.2778Z" fill="white"/>
<path d="M55.8145 32.5556L61.5617 37.2036L65.2027 34.277L55.8145 26.7222V32.5556Z" fill="white"/>
<path d="M75.7396 42.8065V48.6626L65.713 41.0785L55.6875 48.6618V42.8065L65.7139 35.2224L75.7396 42.8065Z" fill="white"/>
</svg>
