<svg width="270" height="120" viewBox="0 0 270 120" fill="none" xmlns="http://www.w3.org/2000/svg">
<path d="M193.141 4.17822H71.1815V64.3372H193.141V4.17822Z" fill="#FFCC66"/>
<path d="M77.5957 7.51855H56.6073V58.4866H77.5957V7.51855Z" fill="white"/>
<path d="M206.044 7.51855H185.056V58.4866H206.044V7.51855Z" fill="white"/>
<path d="M173.638 11.6978H90.6921V55.1459H173.638V11.6978Z" fill="#E8A615"/>
<path d="M96.0653 50.9678H87.6699V59.3232H96.0653V50.9678Z" fill="#ED1847"/>
<path d="M94.3862 9.19189H87.6699V15.8762H94.3862V9.19189Z" fill="#ED1847"/>
<path d="M177.5 50.9678H169.105V59.3232H177.5V50.9678Z" fill="#ED1847"/>
<path d="M175.821 9.19189H169.105V15.8762H175.821V9.19189Z" fill="#ED1847"/>
<path d="M91.8679 13.3687H88.5098V16.7108H91.8679V13.3687Z" fill="#ED1847"/>
<path d="M91.8675 47.6255H86.8303V52.6387H91.8675V47.6255Z" fill="#ED1847"/>
<path d="M176.661 49.2979H171.624V54.3111H176.661V49.2979Z" fill="#ED1847"/>
<path d="M174.142 13.3687H169.945V17.5464H174.142V13.3687Z" fill="#ED1847"/>
<path d="M197.037 17H192V22.0132H197.037V17Z" fill="#ED1847"/>
<path d="M79.2746 5.0127H71.7188V12.5326H79.2746V5.0127Z" fill="#ED1847"/>
<path d="M79.2746 53.4741H71.7188V60.994H79.2746V53.4741Z" fill="#ED1847"/>
<path d="M191.773 5.0127H184.217V12.5326H191.773V5.0127Z" fill="#ED1847"/>
<path d="M191.773 53.4741H184.217V60.994H191.773V53.4741Z" fill="#ED1847"/>
<path d="M227 41H213V55H227V41Z" fill="#3E3D5E"/>
<path d="M70.8794 25.0664H65.8422V30.0797H70.8794V25.0664Z" fill="#B7791D"/>
<path d="M70.8794 40.9409H65.8422V45.9542H70.8794V40.9409Z" fill="#B7791D"/>
<path d="M59.9652 22.5601V17.5469H54.928V22.5601H59.9652Z" fill="white"/>
<path d="M62.9037 38.0176V33.0044H57.8665V38.0176H62.9037Z" fill="#B7791D"/>
<path d="M65.8419 10.0264H64.1628V11.6974H65.8419V10.0264Z" fill="white"/>
<path d="M59.1256 25.9028H54.0884V30.9161H59.1256V25.9028Z" fill="white"/>
<path d="M65.8422 51.8042H61.6445V55.9819H65.8422V51.8042Z" fill="white"/>
<path d="M59.9655 46.7896H57.4469V49.2962H59.9655V46.7896Z" fill="white"/>
<path d="M58.2862 42.6133H55.7676V45.1199H58.2862V42.6133Z" fill="white"/>
<path d="M70.8793 55.9814H69.2002V57.6525H70.8793V55.9814Z" fill="white"/>
<path d="M201.847 50.1318H197.649V54.3095H201.847V50.1318Z" fill="white"/>
<path d="M211.921 34.2573H202.687V43.4483H211.921V34.2573Z" fill="white"/>
<path d="M210.242 20.8887H201.847V29.2441H210.242V20.8887Z" fill="white"/>
<path d="M203.526 12.5337H195.97V20.0536H203.526V12.5337Z" fill="white"/>
<path d="M84.312 24.23H44.0143V27.5721H84.312V24.23Z" fill="white"/>
<path d="M221.156 16.7104H42.3351V18.3815H221.156V16.7104Z" fill="white"/>
<path d="M164.907 43.4487H103.621V45.1198H164.907V43.4487Z" fill="white"/>
<path d="M111.494 28.4088L110.081 29.8149L119.253 38.9431L120.665 37.5369L111.494 28.4088Z" fill="white"/>
<path d="M120.665 29.8192L119.252 28.4131L110.08 37.5412L111.493 38.9474L120.665 29.8192Z" fill="white"/>
<path d="M142.559 28.4064L141.146 29.8125L150.318 38.9406L151.731 37.5345L142.559 28.4064Z" fill="white"/>
<path d="M151.73 29.8124L150.317 28.4062L141.145 37.5344L142.558 38.9405L151.73 29.8124Z" fill="white"/>
<path d="M99.4237 8.35547H93.547V14.2043H99.4237V8.35547Z" fill="white"/>
<path d="M111 4H105V8H111V4Z" fill="white"/>
<path d="M95 4H88V8H95V4Z" fill="white"/>
<path d="M101.103 0H97.7446V3.34216H101.103V0Z" fill="white"/>
<path d="M123.77 63.5005H119.572V67.6782H123.77V63.5005Z" fill="white"/>
<path d="M185.896 59.3237H179.18V66.0081H185.896V59.3237Z" fill="white"/>
<path d="M169.945 64.3364H165.747V68.5141H169.945V64.3364Z" fill="white"/>
<path d="M176.661 31.751H169.945V38.4353H176.661V31.751Z" fill="white"/>
<path d="M215.28 25.0664H178.34V25.9019H215.28V25.0664Z" fill="white"/>
<path d="M104.461 52.6387H47.3722V54.3098H104.461V52.6387Z" fill="white"/>
<path d="M68.6378 76.7448V87.1343H58.1986V81.9355H47.6938V92.3903H63.4223V97.5891H47.6938V108.044H58.1986V102.78H68.6378V113.235H34.5731V108.036H37.1809V81.9273H34.5731V76.7285H68.6378V76.7448Z" fill="#FFCC66"/>
<path d="M112.076 76.7441V97.5966H106.852V108.051H109.46V113.25H96.3389V97.5966H91.1152V113.25H80.6105V76.7441H112.067H112.076ZM101.571 81.943H91.1317V92.3978H101.571V81.943Z" fill="#FFCC66"/>
<path d="M155.513 76.7441V97.5966H150.289V108.051H152.897V113.25H139.776V97.5966H134.553V113.25H124.048V76.7441H155.505H155.513ZM145.008 81.943H134.569V92.3978H145.008V81.943Z" fill="#FFCC66"/>
<path d="M198.951 76.7441V113.25H167.494V76.7441H198.951ZM188.447 108.051V81.943H178.007V108.051H188.447Z" fill="#FFCC66"/>
<path d="M242.389 76.7441V97.5966H237.165V108.051H239.773V113.25H226.652V97.5966H221.428V113.25H210.924V76.7441H242.381H242.389ZM231.884 81.943H221.445V92.3978H231.884V81.943Z" fill="#FFCC66"/>
<g opacity="0.3">
<path d="M71.0981 76.7448V87.1343H60.6589V81.9355H50.1542V92.3903H65.8826V97.5891H50.1542V108.044H60.6589V102.78H71.0981V113.235H37.0334V108.036H39.6412V81.9273H37.0334V76.7285H71.0981V76.7448Z" fill="#FFCC66"/>
<path d="M114.536 76.7441V97.5966H109.312V108.051H111.92V113.25H98.799V97.5966H93.5753V113.25H83.0706V76.7441H114.527H114.536ZM104.031 81.943H93.5917V92.3978H104.031V81.943Z" fill="#FFCC66"/>
<path d="M157.974 76.7441V97.5966H152.75V108.051H155.358V113.25H142.237V97.5966H137.013V113.25H126.509V76.7441H157.966H157.974ZM147.469 81.943H137.03V92.3978H147.469V81.943Z" fill="#FFCC66"/>
<path d="M201.411 76.7441V113.25H169.954V76.7441H201.411ZM190.906 108.051V81.943H180.467V108.051H190.906Z" fill="#FFCC66"/>
<path d="M244.849 76.7441V97.5966H239.625V108.051H242.233V113.25H229.113V97.5966H223.889V113.25H213.384V76.7441H244.841H244.849ZM234.344 81.943H223.905V92.3978H234.344V81.943Z" fill="#FFCC66"/>
</g>
<path d="M38.8185 58.7891H12.577V84.9056H38.8185V58.7891Z" fill="#ED1847"/>
<path d="M9 84H0V93H9V84Z" fill="#ED1847"/>
<path d="M41.2073 111.839H36.287V116.736H41.2073V111.839Z" fill="#1D2445"/>
<path d="M33.8271 95.5161H30.5469V98.7807H33.8271V95.5161Z" fill="#ED1847"/>
<path d="M28.9065 103.678H23.1661V109.391H28.9065V103.678Z" fill="#FFCC66"/>
<path d="M69.0889 109.39H63.3486V115.103H69.0889V109.39Z" fill="#ED1847"/>
<path d="M115.011 73.4795H106.811V81.6409H115.011V73.4795Z" fill="#1D2445"/>
<path d="M115.012 84.9053H111.731V88.1698H115.012V84.9053Z" fill="#ED1847"/>
<path d="M118.292 80.8242H116.652V82.4565H118.292V80.8242Z" fill="#FFCC66"/>
<path d="M159.294 74.2954H151.093V82.4568H159.294V74.2954Z" fill="#FFCC66"/>
<path d="M156.834 69.3984H154.374V71.8469H156.834V69.3984Z" fill="#FFCC66"/>
<path d="M201.116 72.6626H197.836V75.9272H201.116V72.6626Z" fill="#FFCC66"/>
<path d="M190.455 71.0317H187.175V74.2963H190.455V71.0317Z" fill="#FFCC66"/>
<path d="M250.319 72.6626H238.018V84.9047H250.319V72.6626Z" fill="#ED1847"/>
<path d="M255.239 64.502H243.759V75.9279H255.239V64.502Z" fill="#ED1847"/>
<path d="M264.259 75.1113H256.059V83.2728H264.259V75.1113Z" fill="#FFCC66"/>
<path d="M259.339 78.3765H248.679V88.9863H259.339V78.3765Z" fill="#FFCC66"/>
<path d="M257.699 87.355H248.679V96.3325H257.699V87.355Z" fill="#FFCC66"/>
<path d="M265.9 86.5376H257.699V94.699H265.9V86.5376Z" fill="#FFCC66"/>
<path d="M270 78.3765H262.62V85.7218H270V78.3765Z" fill="#FFCC66"/>
<path d="M267.54 71.0317H264.26V75.9286H267.54V71.0317Z" fill="#FFCC66"/>
<path d="M262.619 65.3184H257.699V70.2152H262.619V65.3184Z" fill="#FFCC66"/>
<path d="M268.36 59.6055H266.72V64.5023H268.36V59.6055Z" fill="#FFCC66"/>
<path d="M210.136 115.919H159.294V120H210.136V115.919Z" fill="#ED1847"/>
<path d="M183.895 97.9644H162.574V100.413H183.895V97.9644Z" fill="#ED1847"/>
<path d="M247.039 87.355H32.187V88.9873H247.039V87.355Z" fill="#1D2445"/>
<path d="M213.417 80.8242H210.137V82.4565H213.417V80.8242Z" fill="#1D2445"/>
<path d="M84.6699 101.229H82.2097V103.678H84.6699V101.229Z" fill="#1D2445"/>
<path d="M126.492 111.023H120.752V116.736H126.492V111.023Z" fill="#1D2445"/>
<path d="M169.954 108.574H168.314V110.207H169.954V108.574Z" fill="#1D2445"/>
<path d="M224.897 101.229H220.797V105.31H224.897V101.229Z" fill="#1D2445"/>
<path d="M32.187 82.4565H28.0868V86.5373H32.187V82.4565Z" fill="#3E3D5E"/>
<path d="M24.8064 60.4214H16.606V68.5828H24.8064V60.4214Z" fill="#3E3D5E"/>
<path d="M49.408 56.3413H43.6677V62.0543H49.408V56.3413Z" fill="#3E3D5E"/>
<path d="M41.7403 27H36V32.713H41.7403V27Z" fill="#3E3D5E"/>
<path d="M33.8269 54.7085H24.8064V63.6861H33.8269V54.7085Z" fill="#3E3D5E"/>
<path d="M71.5488 104.494H67.4486V106.126H71.5488V104.494Z" fill="#3E3D5E"/>
<path d="M82.2097 106.942H78.9296V109.39H82.2097V106.942Z" fill="#3E3D5E"/>
<path d="M114.192 93.0684H110.091V97.9652H114.192V93.0684Z" fill="#3E3D5E"/>
<path d="M112.551 73.4795H109.271V76.7441H112.551V73.4795Z" fill="#3E3D5E"/>
<path d="M102.711 71.0317H101.071V72.664H102.711V71.0317Z" fill="#3E3D5E"/>
<path d="M24.8063 95.5161H20.7061V99.5968H24.8063V95.5161Z" fill="#3E3D5E"/>
<path d="M19.0661 108.574H18.2461V109.39H19.0661V108.574Z" fill="#3E3D5E"/>
<path d="M251.139 93.8843H246.219V98.7811H251.139V93.8843Z" fill="#3E3D5E"/>
<path d="M266.72 90.6196H265.079V92.2519H266.72V90.6196Z" fill="#3E3D5E"/>
<path d="M142.893 105.31H141.253V106.942H142.893V105.31Z" fill="#3E3D5E"/>
<path d="M135.512 108.574H130.592V113.471H135.512V108.574Z" fill="#3E3D5E"/>
<path d="M13.9408 50.6284H0V55.5253H13.9408V50.6284Z" fill="#3E3D5E"/>
</svg>
