<svg width="36" height="36" viewBox="0 0 36 36" fill="none" xmlns="http://www.w3.org/2000/svg">
<g clip-path="url(#clip0_348_34265)">
<path d="M0 18V33.0811C0 34.6768 1.36 36 3 36H18V18H0Z" fill="url(#paint0_linear_348_34265)"/>
<path d="M18 36H33C34.66 36 36 34.6768 36 33.0811V18H18V36Z" fill="url(#paint1_linear_348_34265)"/>
<path d="M0 2.91892V18H18V0H3C1.36 0 0 1.30378 0 2.91892Z" fill="url(#paint2_linear_348_34265)"/>
<path d="M36 18V2.91892C36 1.30378 34.66 0 33 0H18V18H36Z" fill="url(#paint3_linear_348_34265)"/>
<path d="M28 2.91895H8C6.89543 2.91895 6 3.79017 6 4.86489V29.1892C6 30.2639 6.89543 31.1352 8 31.1352H28C29.1046 31.1352 30 30.2639 30 29.1892V4.86489C30 3.79017 29.1046 2.91895 28 2.91895Z" fill="url(#paint4_linear_348_34265)"/>
<path d="M18.26 11.3059C18.26 11.3059 18.1 11.1503 18 11.1503C17.9 11.1503 17.78 11.2086 17.74 11.3059L16.24 13.8357C16.24 13.8357 16.18 14.0303 16.24 14.1276C16.3 14.2249 16.4 14.2832 16.5 14.2832H17.5V23.7211C17.5 23.9935 17.72 24.2076 18 24.2076C18.28 24.2076 18.5 23.9935 18.5 23.7211V14.2832H19.5C19.6 14.2832 19.7 14.2249 19.76 14.1276C19.82 14.0497 19.82 13.933 19.76 13.8357L18.26 11.3059Z" fill="#333333"/>
</g>
<rect x="0.5" y="0.5" width="35" height="35" rx="2.5" stroke="#B5B5B5"/>
<defs>
<linearGradient id="paint0_linear_348_34265" x1="1.2" y1="17.027" x2="17.2106" y2="36.6461" gradientUnits="userSpaceOnUse">
<stop offset="0.45" stop-color="#E5E5E5"/>
<stop offset="0.64" stop-color="#CACACA"/>
</linearGradient>
<linearGradient id="paint1_linear_348_34265" x1="34.8" y1="17.027" x2="18.7894" y2="36.6461" gradientUnits="userSpaceOnUse">
<stop offset="0.45" stop-color="#CECECE"/>
<stop offset="0.64" stop-color="#CACACA"/>
</linearGradient>
<linearGradient id="paint2_linear_348_34265" x1="14.6" y1="-1.5373" x2="4.75541" y2="20.1526" gradientUnits="userSpaceOnUse">
<stop offset="0.26" stop-color="white"/>
<stop offset="0.43" stop-color="#E5E5E5"/>
</linearGradient>
<linearGradient id="paint3_linear_348_34265" x1="21.4" y1="-1.5373" x2="31.2446" y2="20.1526" gradientUnits="userSpaceOnUse">
<stop offset="0.26" stop-color="white"/>
<stop offset="0.43" stop-color="#CECECE"/>
</linearGradient>
<linearGradient id="paint4_linear_348_34265" x1="3.36" y1="8.7957" x2="32.2329" y2="25.9439" gradientUnits="userSpaceOnUse">
<stop stop-color="#CCCCCC"/>
<stop offset="1" stop-color="white"/>
</linearGradient>
<clipPath id="clip0_348_34265">
<rect width="36" height="36" rx="3" fill="white"/>
</clipPath>
</defs>
</svg>
